<?xml version="1.0" standalone="no"?>
<!DOCTYPE svg PUBLIC "-//W3C//DTD SVG 20010904//EN"
 "http://www.w3.org/TR/2001/REC-SVG-20010904/DTD/svg10.dtd">
<svg version="1.0" xmlns="http://www.w3.org/2000/svg"
 width="353.000000pt" height="500.000000pt" viewBox="0 0 353.000000 500.000000"
 preserveAspectRatio="xMidYMid meet">

<g transform="translate(0.000000,500.000000) scale(0.100000,-0.100000)"
fill="#000000" stroke="none">
<path d="M1414 3545 c-265 -50 -358 -89 -464 -195 -121 -120 -178 -268 -187
-485 l-5 -130 65 103 c69 106 188 264 258 342 l41 45 -6 -55 c-11 -108 -32
-154 -114 -252 -43 -51 -110 -136 -149 -188 -80 -106 -80 -101 1 -156 l50 -33
34 52 c140 213 392 430 651 562 l54 27 -48 -69 c-86 -121 -156 -202 -193 -225
-119 -71 -304 -227 -390 -325 l-52 -61 60 -22 60 -22 71 67 c165 155 394 268
681 335 85 20 280 51 286 45 4 -3 -141 -99 -208 -137 -25 -15 -88 -36 -140
-49 -227 -52 -429 -147 -545 -255 l-40 -37 104 -22 103 -23 107 45 c217 91
428 127 645 111 107 -8 125 -12 114 -24 -13 -13 -323 -83 -433 -98 -241 -33
-333 -59 -361 -102 -15 -22 -15 -26 0 -49 20 -31 82 -67 171 -100 97 -37 132
-61 155 -106 40 -78 15 -157 -80 -250 -48 -47 -56 -59 -40 -59 54 0 314 121
432 201 141 96 193 167 186 252 l-4 53 75 27 c134 48 232 107 268 161 40 58
62 128 70 217 l6 67 -29 5 c-16 3 -48 9 -71 12 l-42 7 51 74 c45 66 50 79 45
112 -15 92 -164 332 -206 332 -11 0 -55 -7 -98 -15 -43 -8 -81 -15 -84 -15 -3
0 6 33 20 74 31 91 30 93 -94 152 -213 101 -359 94 -581 -27 -39 -21 -74 -39
-77 -39 -3 0 6 34 19 75 13 42 24 80 24 85 0 14 -28 11 -166 -15z"/>
</g>
</svg>
